<mxfile host="65bd71144e">
    <diagram id="c2p4tpvlhB8iyx7JZQBS" name="Page-1">
        <mxGraphModel dx="2880" dy="1854" grid="1" gridSize="10" guides="1" tooltips="1" connect="1" arrows="1" fold="1" page="1" pageScale="1" pageWidth="827" pageHeight="1169" math="0" shadow="0">
            <root>
                <mxCell id="0"/>
                <mxCell id="1" parent="0"/>
                <mxCell id="2" value="App" style="shape=umlLifeline;perimeter=lifelinePerimeter;whiteSpace=wrap;html=1;container=1;collapsible=0;recursiveResize=0;outlineConnect=0;" vertex="1" parent="1">
                    <mxGeometry x="120" y="120" width="100" height="560" as="geometry"/>
                </mxCell>
                <mxCell id="4" value="API Gateway" style="shape=umlLifeline;perimeter=lifelinePerimeter;whiteSpace=wrap;html=1;container=1;collapsible=0;recursiveResize=0;outlineConnect=0;" vertex="1" parent="1">
                    <mxGeometry x="280" y="120" width="110" height="560" as="geometry"/>
                </mxCell>
                <mxCell id="13" value="" style="html=1;points=[];perimeter=orthogonalPerimeter;" vertex="1" parent="4">
                    <mxGeometry x="50" y="140" width="10" height="40" as="geometry"/>
                </mxCell>
                <mxCell id="14" value="authorize" style="edgeStyle=orthogonalEdgeStyle;html=1;align=left;spacingLeft=2;endArrow=block;rounded=0;entryX=1;entryY=0;" edge="1" target="13" parent="4">
                    <mxGeometry relative="1" as="geometry">
                        <mxPoint x="55" y="120" as="sourcePoint"/>
                        <Array as="points">
                            <mxPoint x="85" y="120"/>
                        </Array>
                    </mxGeometry>
                </mxCell>
                <mxCell id="5" value="Data Exporter" style="shape=umlLifeline;perimeter=lifelinePerimeter;whiteSpace=wrap;html=1;container=1;collapsible=0;recursiveResize=0;outlineConnect=0;" vertex="1" parent="1">
                    <mxGeometry x="480" y="120" width="100" height="840" as="geometry"/>
                </mxCell>
                <mxCell id="21" value="" style="html=1;points=[];perimeter=orthogonalPerimeter;" vertex="1" parent="5">
                    <mxGeometry x="45" y="360" width="10" height="390" as="geometry"/>
                </mxCell>
                <mxCell id="6" value="" style="endArrow=none;dashed=1;html=1;dashPattern=1 3;strokeWidth=2;" edge="1" parent="1">
                    <mxGeometry width="50" height="50" relative="1" as="geometry">
                        <mxPoint x="440" y="880" as="sourcePoint"/>
                        <mxPoint x="440" y="40" as="targetPoint"/>
                    </mxGeometry>
                </mxCell>
                <mxCell id="7" value="" style="html=1;points=[];perimeter=orthogonalPerimeter;" vertex="1" parent="1">
                    <mxGeometry x="325" y="200" width="10" height="240" as="geometry"/>
                </mxCell>
                <mxCell id="8" value="GET: dataExport" style="html=1;verticalAlign=bottom;endArrow=block;entryX=0;entryY=0;" edge="1" target="7" parent="1">
                    <mxGeometry relative="1" as="geometry">
                        <mxPoint x="170" y="200" as="sourcePoint"/>
                    </mxGeometry>
                </mxCell>
                <mxCell id="9" value="return" style="html=1;verticalAlign=bottom;endArrow=open;dashed=1;endSize=8;exitX=0;exitY=0.95;" edge="1" source="7" parent="1" target="2">
                    <mxGeometry relative="1" as="geometry">
                        <mxPoint x="170" y="276" as="targetPoint"/>
                    </mxGeometry>
                </mxCell>
                <mxCell id="10" value="" style="html=1;points=[];perimeter=orthogonalPerimeter;" vertex="1" parent="1">
                    <mxGeometry x="525" y="320" width="10" height="80" as="geometry"/>
                </mxCell>
                <mxCell id="11" value="POST: scheduleDataExport" style="html=1;verticalAlign=bottom;endArrow=block;entryX=0;entryY=0;" edge="1" target="10" parent="1" source="4">
                    <mxGeometry relative="1" as="geometry">
                        <mxPoint x="334" y="240" as="sourcePoint"/>
                    </mxGeometry>
                </mxCell>
                <mxCell id="12" value="return ExportId" style="html=1;verticalAlign=bottom;endArrow=open;dashed=1;endSize=8;exitX=0;exitY=0.95;" edge="1" source="10" parent="1" target="4">
                    <mxGeometry relative="1" as="geometry">
                        <mxPoint x="370" y="396" as="targetPoint"/>
                    </mxGeometry>
                </mxCell>
                <mxCell id="15" value="ScheduleDataExport&lt;br&gt;&lt;br&gt;&lt;div style=&quot;text-align: left&quot;&gt;ExportCollection: &quot;formData&quot;,&lt;br&gt;Result: {&lt;br&gt;&lt;span style=&quot;white-space: pre&quot;&gt;&#9;&lt;/span&gt;sendTo: &quot;max@muster.de&quot;,&lt;/div&gt;&lt;div style=&quot;text-align: left&quot;&gt;},&lt;/div&gt;&lt;div style=&quot;text-align: left&quot;&gt;Metadata: {&lt;/div&gt;&lt;div style=&quot;text-align: left&quot;&gt;&lt;span style=&quot;white-space: pre&quot;&gt;&#9;&lt;/span&gt;formId: &quot;&amp;lt;GUID&amp;gt;&quot;,&lt;/div&gt;&lt;div style=&quot;text-align: left&quot;&gt;&lt;span style=&quot;white-space: pre&quot;&gt;&#9;&lt;/span&gt;&lt;br&gt;&lt;/div&gt;&lt;div style=&quot;text-align: left&quot;&gt;}&lt;/div&gt;" style="shape=note2;boundedLbl=1;whiteSpace=wrap;html=1;size=25;verticalAlign=top;align=center;" vertex="1" parent="1">
                    <mxGeometry x="630" y="-110" width="230" height="200" as="geometry"/>
                </mxCell>
                <mxCell id="16" value="Azure Storage" style="shape=umlLifeline;perimeter=lifelinePerimeter;whiteSpace=wrap;html=1;container=1;collapsible=0;recursiveResize=0;outlineConnect=0;" vertex="1" parent="1">
                    <mxGeometry x="640" y="120" width="100" height="840" as="geometry"/>
                </mxCell>
                <mxCell id="24" value="" style="html=1;points=[];perimeter=orthogonalPerimeter;" vertex="1" parent="16">
                    <mxGeometry x="45" y="400" width="10" height="80" as="geometry"/>
                </mxCell>
                <mxCell id="17" value="Azure Cosmos DB" style="shape=umlLifeline;perimeter=lifelinePerimeter;whiteSpace=wrap;html=1;container=1;collapsible=0;recursiveResize=0;outlineConnect=0;" vertex="1" parent="1">
                    <mxGeometry x="800" y="120" width="100" height="840" as="geometry"/>
                </mxCell>
                <mxCell id="18" value="Azure Service Bus" style="shape=umlLifeline;perimeter=lifelinePerimeter;whiteSpace=wrap;html=1;container=1;collapsible=0;recursiveResize=0;outlineConnect=0;" vertex="1" parent="1">
                    <mxGeometry x="960" y="120" width="100" height="840" as="geometry"/>
                </mxCell>
                <mxCell id="19" value="" style="html=1;points=[];perimeter=orthogonalPerimeter;" vertex="1" parent="1">
                    <mxGeometry x="1005" y="340" width="10" height="20" as="geometry"/>
                </mxCell>
                <mxCell id="20" value="PUT to export queue" style="html=1;verticalAlign=bottom;startArrow=oval;endArrow=block;startSize=8;" edge="1" target="19" parent="1">
                    <mxGeometry relative="1" as="geometry">
                        <mxPoint x="535" y="340" as="sourcePoint"/>
                    </mxGeometry>
                </mxCell>
                <mxCell id="22" value="trigger" style="html=1;verticalAlign=bottom;endArrow=block;entryX=1;entryY=0;" edge="1" target="21" parent="1" source="18">
                    <mxGeometry relative="1" as="geometry">
                        <mxPoint x="595" y="480" as="sourcePoint"/>
                    </mxGeometry>
                </mxCell>
                <mxCell id="23" value="return" style="html=1;verticalAlign=bottom;endArrow=open;dashed=1;endSize=8;exitX=1;exitY=0.95;" edge="1" source="21" parent="1" target="18">
                    <mxGeometry relative="1" as="geometry">
                        <mxPoint x="595" y="537" as="targetPoint"/>
                    </mxGeometry>
                </mxCell>
                <mxCell id="25" value="export" style="html=1;verticalAlign=bottom;endArrow=block;entryX=0;entryY=0;" edge="1" target="24" parent="1">
                    <mxGeometry relative="1" as="geometry">
                        <mxPoint x="540" y="520" as="sourcePoint"/>
                    </mxGeometry>
                </mxCell>
                <mxCell id="26" value="return" style="html=1;verticalAlign=bottom;endArrow=open;dashed=1;endSize=8;exitX=0;exitY=0.95;" edge="1" source="24" parent="1">
                    <mxGeometry relative="1" as="geometry">
                        <mxPoint x="540" y="596" as="targetPoint"/>
                    </mxGeometry>
                </mxCell>
            </root>
        </mxGraphModel>
    </diagram>
</mxfile>
